<svg width="100" height="78" viewBox="0 0 100 78" fill="none" xmlns="http://www.w3.org/2000/svg">
<path fill-rule="evenodd" clip-rule="evenodd" d="M63.6364 51.9508C63.6364 45.6053 61.3273 39.5652 57.1273 34.8447L61.6765 30.2955C61.747 30.225 61.8106 30.147 61.8659 30.0636C61.8909 30.0265 61.9083 29.9864 61.9288 29.9477C61.9553 29.9 61.9841 29.8538 62.0053 29.803C62.0258 29.753 62.0379 29.7015 62.053 29.65C62.0659 29.6068 62.0826 29.5652 62.0917 29.5205C62.1106 29.422 62.1212 29.3227 62.1212 29.2235V12.7356L68.1818 7.02121V21.6477H82.2614L77.0523 27.7083H66.6667C65.8303 27.7083 65.1515 28.3871 65.1515 29.2235C65.1515 30.0598 65.8303 30.7386 66.6667 30.7386H78.444L88.8614 18.6174H71.2121V0L59.0909 11.4273V28.5962L36.8076 50.8795C36.2159 51.4712 36.2159 52.4303 36.8076 53.022C37.1038 53.3182 37.4909 53.4659 37.8788 53.4659C38.2667 53.4659 38.6538 53.3182 38.95 53.022L46.3697 45.6023C47.7371 47.428 48.4849 49.65 48.4849 51.9508C48.4849 57.7992 43.7273 62.5568 37.8788 62.5568C32.0303 62.5568 27.2727 57.7992 27.2727 51.9508C27.2727 46.1023 32.0303 41.3447 37.8788 41.3447C38.778 41.3447 39.6705 41.4568 40.5318 41.6788C41.3394 41.8864 42.1682 41.3992 42.3773 40.5886C42.5856 39.7788 42.097 38.9523 41.2864 38.7439C40.1796 38.4591 39.0326 38.3144 37.8788 38.3144C30.3591 38.3144 24.2424 44.4318 24.2424 51.9508C24.2424 59.4697 30.3591 65.5871 37.8788 65.5871C45.3985 65.5871 51.5152 59.4697 51.5152 51.9508C51.5152 48.8477 50.45 45.8591 48.5235 43.4492L54.9826 36.9894C58.6136 41.1348 60.6061 46.4114 60.6061 51.9508C60.6061 64.4826 50.4106 74.678 37.8788 74.678C25.347 74.678 15.1515 64.4826 15.1515 51.9508C15.1515 39.4189 25.347 29.2235 37.8788 29.2235C41.8743 29.2235 45.8038 30.275 49.2409 32.2636C49.9659 32.6811 50.8924 32.4348 51.3106 31.7106C51.7303 30.9864 51.4826 30.0591 50.7591 29.6402C46.8599 27.3848 42.4068 26.1932 37.8788 26.1932C23.6758 26.1932 12.1212 37.7477 12.1212 51.9508C12.1212 66.1538 23.6758 77.7083 37.8788 77.7083C52.0818 77.7083 63.6364 66.1538 63.6364 51.9508Z" fill="white"/>
<path fill-rule="evenodd" clip-rule="evenodd" d="M21.2121 74.678H3.0303V4.98105H62.1212C62.9576 4.98105 63.6364 4.30226 63.6364 3.4659C63.6364 2.62953 62.9576 1.95074 62.1212 1.95074H0V77.7083H21.2121C22.0485 77.7083 22.7273 77.0295 22.7273 76.1932C22.7273 75.3568 22.0485 74.678 21.2121 74.678Z" fill="white"/>
<path fill-rule="evenodd" clip-rule="evenodd" d="M86.3636 1.95074L85.6909 1.99544L74.6864 13.0007C74.0947 13.5924 74.0947 14.5515 74.6864 15.1432C75.2773 15.7348 76.2379 15.7348 76.8288 15.1432L86.9909 4.98105H96.9697V74.678H55.303C54.4667 74.678 53.7879 75.3568 53.7879 76.1932C53.7879 77.0295 54.4667 77.7083 55.303 77.7083H100V1.95074H86.3636Z" fill="white"/>
</svg>
