<svg width="100" height="76" viewBox="0 0 100 76" fill="none" xmlns="http://www.w3.org/2000/svg">
<mask id="mask0" mask-type="alpha" maskUnits="userSpaceOnUse" x="0" y="0" width="31" height="50">
<path fill-rule="evenodd" clip-rule="evenodd" d="M0.000366211 0.746277H30.4688V49.1074H0.000366211V0.746277Z" fill="white"/>
</mask>
<g mask="url(#mask0)">
<path fill-rule="evenodd" clip-rule="evenodd" d="M18.0914 34.6193C17.0272 33.5552 17.0272 31.8238 18.0914 30.7596L19.1474 29.7044L12.5586 23.1156L9.5735 26.1007L4.22201 20.7492L20.0392 4.93129L25.2675 9.98129L15.9578 19.7179C15.3877 20.3134 15.4086 21.2582 16.0048 21.8276C16.6011 22.3977 17.5459 22.3761 18.1145 21.7805L29.478 9.89771L20.0034 0.746216L0.000366211 20.7492L9.5735 30.3231L12.5586 27.338L15.0638 29.8432C14.5705 30.6999 14.3078 31.6746 14.3078 32.6895C14.3078 34.2156 14.9019 35.6507 15.981 36.7298L27.9213 48.6701C28.2131 48.9619 28.5944 49.1074 28.9765 49.1074C29.3586 49.1074 29.7407 48.9619 30.0317 48.6701C30.6145 48.0873 30.6145 47.1425 30.0317 46.5596L18.0914 34.6193Z" fill="white"/>
</g>
<mask id="mask1" mask-type="alpha" maskUnits="userSpaceOnUse" x="69" y="0" width="31" height="50">
<path fill-rule="evenodd" clip-rule="evenodd" d="M69.2749 0.746277H99.7441V49.1072H69.2749V0.746277Z" fill="white"/>
</mask>
<g mask="url(#mask1)">
<path fill-rule="evenodd" clip-rule="evenodd" d="M79.7409 0.746063L70.2663 9.89755L81.629 21.7811C82.1984 22.3759 83.1432 22.3983 83.7395 21.8281C84.335 21.258 84.3566 20.3132 83.7865 19.7177L74.476 9.98114L79.7044 4.93114L95.5223 20.749L90.1708 26.1013L87.1857 23.1162L80.5969 29.7043L81.6529 30.7595C82.7163 31.8237 82.7163 33.555 81.6529 34.6192L69.7126 46.5595C69.129 47.1423 69.129 48.0878 69.7126 48.6699C70.0036 48.9617 70.3857 49.1073 70.7678 49.1073C71.1492 49.1073 71.532 48.9617 71.823 48.6699L83.7633 36.7296C84.8424 35.6505 85.4372 34.2162 85.4372 32.6893C85.4372 31.6744 85.1738 30.6998 84.6805 29.8431L87.1857 27.3379L90.1708 30.3229L99.7447 20.749L79.7409 0.746063Z" fill="white"/>
</g>
<path fill-rule="evenodd" clip-rule="evenodd" d="M61.6315 18.5632C63.3777 16.8177 66.218 16.8177 67.9636 18.5632L69.2747 19.8752L71.8225 17.3267C72.4061 16.7438 72.4061 15.799 71.8225 15.2162C71.2404 14.6334 70.2942 14.6334 69.7121 15.2162L69.2143 15.714C66.2971 13.5692 62.1583 13.814 59.521 16.4528L59.4098 16.5632C58.5927 15.4819 57.2994 14.7789 55.8419 14.7789C55.3195 14.7789 54.8165 14.8692 54.3494 15.0349V13.2864C54.3494 10.8177 52.3412 8.80875 49.8718 8.80875C47.4031 8.80875 45.3941 10.8177 45.3941 13.2864V15.0349C43.7919 14.4655 41.6725 14.7767 40.4382 16.667L40.2233 16.4528C37.5859 13.814 33.4464 13.5692 30.5292 15.714L30.0315 15.2162C29.4494 14.6334 28.5031 14.6334 27.921 15.2162C27.3382 15.799 27.3382 16.7438 27.921 17.3267L30.4688 19.8752L31.7807 18.5632C33.527 16.8177 36.3673 16.8177 38.1128 18.5632L39.4591 19.9095C39.4397 20.1789 39.424 20.455 39.424 20.749V32.6931C38.1762 31.7543 36.6247 31.1968 34.9464 31.1968H33.4539V53.5849C33.4539 57.1886 36.0225 60.2043 39.424 60.8983V62.5401C39.424 63.3647 40.0927 64.0326 40.9165 64.0326C41.7412 64.0326 42.4091 63.3647 42.4091 62.5401V58.0625H40.9165C38.4479 58.0625 36.4389 56.0543 36.4389 53.5849V34.4379C38.1762 35.0535 39.424 36.714 39.424 38.6595V46.1222V47.6147C39.424 48.4393 40.0927 49.1073 40.9165 49.1073C41.7412 49.1073 42.4091 48.4393 42.4091 47.6147V46.1222V20.749C42.4091 19.852 42.5553 17.764 43.9016 17.764C44.7255 17.764 45.3941 18.4334 45.3941 19.2565V35.6744V37.167V38.6595C45.3941 39.4841 46.0628 40.152 46.8867 40.152C47.7113 40.152 48.3792 39.4841 48.3792 38.6595V37.167V35.6744V13.2864C48.3792 12.4632 49.0494 11.7938 49.8718 11.7938C50.6956 11.7938 51.3643 12.4632 51.3643 13.2864V35.6744V37.167V38.6595C51.3643 39.4841 52.033 40.152 52.8568 40.152C53.6815 40.152 54.3494 39.4841 54.3494 38.6595V37.167V35.6744V19.2565C54.3494 18.4334 55.0195 17.764 55.8419 17.764C56.6658 17.764 57.3344 18.4334 57.3344 19.2565V35.6744V37.167V38.6595C57.3344 39.4841 58.0031 40.152 58.827 40.152C59.6516 40.152 60.3195 39.4841 60.3195 38.6595V37.167V35.6744V25.2267C60.3195 24.4035 60.9897 23.7341 61.8121 23.7341C62.6359 23.7341 63.3046 24.4035 63.3046 25.2267V53.5849C63.3046 56.0543 61.2964 58.0625 58.827 58.0625H57.3344V70.0028H60.3195V72.9879H39.424V70.0028H52.8568C53.6815 70.0028 54.3494 69.3349 54.3494 68.5102C54.3494 67.6864 53.6815 67.0177 52.8568 67.0177H36.4389V75.9729H63.3046V67.0177H60.3195V60.8983C63.7218 60.2043 66.2897 57.1886 66.2897 53.5849V25.2267C66.2897 22.758 64.2815 20.749 61.8121 20.749C61.2897 20.749 60.7867 20.8393 60.3195 21.005V19.8744L61.6315 18.5632Z" fill="white"/>
</svg>
