<svg width="106" height="106" viewBox="0 0 106 106" fill="none" xmlns="http://www.w3.org/2000/svg">
<path fill-rule="evenodd" clip-rule="evenodd" d="M4 2C4 3.10449 3.10449 4 2 4C0.895507 4 0 3.10449 0 2C0 0.895507 0.895507 0 2 0C3.10449 0 4 0.895507 4 2Z" fill="white"/>
<path fill-rule="evenodd" clip-rule="evenodd" d="M18 2C18 3.10449 17.1045 4 16 4C14.8955 4 14 3.10449 14 2C14 0.895507 14.8955 0 16 0C17.1045 0 18 0.895507 18 2Z" fill="white"/>
<path fill-rule="evenodd" clip-rule="evenodd" d="M33 2C33 3.10449 32.1045 4 31 4C29.8955 4 29 3.10449 29 2C29 0.895507 29.8955 0 31 0C32.1045 0 33 0.895507 33 2Z" fill="white"/>
<path fill-rule="evenodd" clip-rule="evenodd" d="M48 2C48 3.10449 47.1045 4 46 4C44.8955 4 44 3.10449 44 2C44 0.895507 44.8955 0 46 0C47.1045 0 48 0.895507 48 2Z" fill="white"/>
<path fill-rule="evenodd" clip-rule="evenodd" d="M62 2C62 3.10449 61.1045 4 60 4C58.8955 4 58 3.10449 58 2C58 0.895507 58.8955 0 60 0C61.1045 0 62 0.895507 62 2Z" fill="white"/>
<path fill-rule="evenodd" clip-rule="evenodd" d="M77 2C77 3.10449 76.1045 4 75 4C73.8955 4 73 3.10449 73 2C73 0.895507 73.8955 0 75 0C76.1045 0 77 0.895507 77 2Z" fill="white"/>
<path fill-rule="evenodd" clip-rule="evenodd" d="M91 2C91 3.10449 90.1045 4 89 4C87.8955 4 87 3.10449 87 2C87 0.895507 87.8955 0 89 0C90.1045 0 91 0.895507 91 2Z" fill="white"/>
<path fill-rule="evenodd" clip-rule="evenodd" d="M106 2C106 3.10449 105.104 4 104 4C102.896 4 102 3.10449 102 2C102 0.895507 102.896 0 104 0C105.104 0 106 0.895507 106 2Z" fill="white"/>
<path fill-rule="evenodd" clip-rule="evenodd" d="M4 15C4 16.1045 3.10449 17 2 17C0.895507 17 0 16.1045 0 15C0 13.8955 0.895507 13 2 13C3.10449 13 4 13.8955 4 15Z" fill="white"/>
<path fill-rule="evenodd" clip-rule="evenodd" d="M18 15C18 16.1045 17.1045 17 16 17C14.8955 17 14 16.1045 14 15C14 13.8955 14.8955 13 16 13C17.1045 13 18 13.8955 18 15Z" fill="white"/>
<path fill-rule="evenodd" clip-rule="evenodd" d="M33 15C33 16.1045 32.1045 17 31 17C29.8955 17 29 16.1045 29 15C29 13.8955 29.8955 13 31 13C32.1045 13 33 13.8955 33 15Z" fill="white"/>
<path fill-rule="evenodd" clip-rule="evenodd" d="M48 15C48 16.1045 47.1045 17 46 17C44.8955 17 44 16.1045 44 15C44 13.8955 44.8955 13 46 13C47.1045 13 48 13.8955 48 15Z" fill="white"/>
<path fill-rule="evenodd" clip-rule="evenodd" d="M62 15C62 16.1045 61.1045 17 60 17C58.8955 17 58 16.1045 58 15C58 13.8955 58.8955 13 60 13C61.1045 13 62 13.8955 62 15Z" fill="white"/>
<path fill-rule="evenodd" clip-rule="evenodd" d="M77 15C77 16.1045 76.1045 17 75 17C73.8955 17 73 16.1045 73 15C73 13.8955 73.8955 13 75 13C76.1045 13 77 13.8955 77 15Z" fill="white"/>
<path fill-rule="evenodd" clip-rule="evenodd" d="M91 15C91 16.1045 90.1045 17 89 17C87.8955 17 87 16.1045 87 15C87 13.8955 87.8955 13 89 13C90.1045 13 91 13.8955 91 15Z" fill="white"/>
<path fill-rule="evenodd" clip-rule="evenodd" d="M106 15C106 16.1045 105.104 17 104 17C102.896 17 102 16.1045 102 15C102 13.8955 102.896 13 104 13C105.104 13 106 13.8955 106 15Z" fill="white"/>
<path fill-rule="evenodd" clip-rule="evenodd" d="M4 27C4 28.1045 3.10449 29 2 29C0.895507 29 0 28.1045 0 27C0 25.8955 0.895507 25 2 25C3.10449 25 4 25.8955 4 27Z" fill="white"/>
<path fill-rule="evenodd" clip-rule="evenodd" d="M18 27C18 28.1045 17.1045 29 16 29C14.8955 29 14 28.1045 14 27C14 25.8955 14.8955 25 16 25C17.1045 25 18 25.8955 18 27Z" fill="white"/>
<path fill-rule="evenodd" clip-rule="evenodd" d="M33 27C33 28.1045 32.1045 29 31 29C29.8955 29 29 28.1045 29 27C29 25.8955 29.8955 25 31 25C32.1045 25 33 25.8955 33 27Z" fill="white"/>
<path fill-rule="evenodd" clip-rule="evenodd" d="M48 27C48 28.1045 47.1045 29 46 29C44.8955 29 44 28.1045 44 27C44 25.8955 44.8955 25 46 25C47.1045 25 48 25.8955 48 27Z" fill="white"/>
<path fill-rule="evenodd" clip-rule="evenodd" d="M62 27C62 28.1045 61.1045 29 60 29C58.8955 29 58 28.1045 58 27C58 25.8955 58.8955 25 60 25C61.1045 25 62 25.8955 62 27Z" fill="white"/>
<path fill-rule="evenodd" clip-rule="evenodd" d="M77 27C77 28.1045 76.1045 29 75 29C73.8955 29 73 28.1045 73 27C73 25.8955 73.8955 25 75 25C76.1045 25 77 25.8955 77 27Z" fill="white"/>
<path fill-rule="evenodd" clip-rule="evenodd" d="M91 27C91 28.1045 90.1045 29 89 29C87.8955 29 87 28.1045 87 27C87 25.8955 87.8955 25 89 25C90.1045 25 91 25.8955 91 27Z" fill="white"/>
<path fill-rule="evenodd" clip-rule="evenodd" d="M106 27C106 28.1045 105.104 29 104 29C102.896 29 102 28.1045 102 27C102 25.8955 102.896 25 104 25C105.104 25 106 25.8955 106 27Z" fill="white"/>
<path fill-rule="evenodd" clip-rule="evenodd" d="M4 40C4 41.1045 3.10449 42 2 42C0.895507 42 0 41.1045 0 40C0 38.8955 0.895507 38 2 38C3.10449 38 4 38.8955 4 40Z" fill="white"/>
<path fill-rule="evenodd" clip-rule="evenodd" d="M18 40C18 41.1045 17.1045 42 16 42C14.8955 42 14 41.1045 14 40C14 38.8955 14.8955 38 16 38C17.1045 38 18 38.8955 18 40Z" fill="white"/>
<path fill-rule="evenodd" clip-rule="evenodd" d="M33 40C33 41.1045 32.1045 42 31 42C29.8955 42 29 41.1045 29 40C29 38.8955 29.8955 38 31 38C32.1045 38 33 38.8955 33 40Z" fill="white"/>
<path fill-rule="evenodd" clip-rule="evenodd" d="M48 40C48 41.1045 47.1045 42 46 42C44.8955 42 44 41.1045 44 40C44 38.8955 44.8955 38 46 38C47.1045 38 48 38.8955 48 40Z" fill="white"/>
<path fill-rule="evenodd" clip-rule="evenodd" d="M62 40C62 41.1045 61.1045 42 60 42C58.8955 42 58 41.1045 58 40C58 38.8955 58.8955 38 60 38C61.1045 38 62 38.8955 62 40Z" fill="white"/>
<path fill-rule="evenodd" clip-rule="evenodd" d="M77 40C77 41.1045 76.1045 42 75 42C73.8955 42 73 41.1045 73 40C73 38.8955 73.8955 38 75 38C76.1045 38 77 38.8955 77 40Z" fill="white"/>
<path fill-rule="evenodd" clip-rule="evenodd" d="M91 40C91 41.1045 90.1045 42 89 42C87.8955 42 87 41.1045 87 40C87 38.8955 87.8955 38 89 38C90.1045 38 91 38.8955 91 40Z" fill="white"/>
<path fill-rule="evenodd" clip-rule="evenodd" d="M106 40C106 41.1045 105.104 42 104 42C102.896 42 102 41.1045 102 40C102 38.8955 102.896 38 104 38C105.104 38 106 38.8955 106 40Z" fill="white"/>
<path fill-rule="evenodd" clip-rule="evenodd" d="M4 53C4 54.1045 3.10449 55 2 55C0.895507 55 0 54.1045 0 53C0 51.8955 0.895507 51 2 51C3.10449 51 4 51.8955 4 53Z" fill="white"/>
<path fill-rule="evenodd" clip-rule="evenodd" d="M18 53C18 54.1045 17.1045 55 16 55C14.8955 55 14 54.1045 14 53C14 51.8955 14.8955 51 16 51C17.1045 51 18 51.8955 18 53Z" fill="white"/>
<path fill-rule="evenodd" clip-rule="evenodd" d="M33 53C33 54.1045 32.1045 55 31 55C29.8955 55 29 54.1045 29 53C29 51.8955 29.8955 51 31 51C32.1045 51 33 51.8955 33 53Z" fill="white"/>
<path fill-rule="evenodd" clip-rule="evenodd" d="M48 53C48 54.1045 47.1045 55 46 55C44.8955 55 44 54.1045 44 53C44 51.8955 44.8955 51 46 51C47.1045 51 48 51.8955 48 53Z" fill="white"/>
<path fill-rule="evenodd" clip-rule="evenodd" d="M62 53C62 54.1045 61.1045 55 60 55C58.8955 55 58 54.1045 58 53C58 51.8955 58.8955 51 60 51C61.1045 51 62 51.8955 62 53Z" fill="white"/>
<path fill-rule="evenodd" clip-rule="evenodd" d="M77 53C77 54.1045 76.1045 55 75 55C73.8955 55 73 54.1045 73 53C73 51.8955 73.8955 51 75 51C76.1045 51 77 51.8955 77 53Z" fill="white"/>
<path fill-rule="evenodd" clip-rule="evenodd" d="M91 53C91 54.1045 90.1045 55 89 55C87.8955 55 87 54.1045 87 53C87 51.8955 87.8955 51 89 51C90.1045 51 91 51.8955 91 53Z" fill="white"/>
<path fill-rule="evenodd" clip-rule="evenodd" d="M106 53C106 54.1045 105.104 55 104 55C102.896 55 102 54.1045 102 53C102 51.8955 102.896 51 104 51C105.104 51 106 51.8955 106 53Z" fill="white"/>
<path fill-rule="evenodd" clip-rule="evenodd" d="M4 66C4 67.1045 3.10449 68 2 68C0.895507 68 0 67.1045 0 66C0 64.8955 0.895507 64 2 64C3.10449 64 4 64.8955 4 66Z" fill="white"/>
<path fill-rule="evenodd" clip-rule="evenodd" d="M18 66C18 67.1045 17.1045 68 16 68C14.8955 68 14 67.1045 14 66C14 64.8955 14.8955 64 16 64C17.1045 64 18 64.8955 18 66Z" fill="white"/>
<path fill-rule="evenodd" clip-rule="evenodd" d="M33 66C33 67.1045 32.1045 68 31 68C29.8955 68 29 67.1045 29 66C29 64.8955 29.8955 64 31 64C32.1045 64 33 64.8955 33 66Z" fill="white"/>
<path fill-rule="evenodd" clip-rule="evenodd" d="M48 66C48 67.1045 47.1045 68 46 68C44.8955 68 44 67.1045 44 66C44 64.8955 44.8955 64 46 64C47.1045 64 48 64.8955 48 66Z" fill="white"/>
<path fill-rule="evenodd" clip-rule="evenodd" d="M62 66C62 67.1045 61.1045 68 60 68C58.8955 68 58 67.1045 58 66C58 64.8955 58.8955 64 60 64C61.1045 64 62 64.8955 62 66Z" fill="white"/>
<path fill-rule="evenodd" clip-rule="evenodd" d="M77 66C77 67.1045 76.1045 68 75 68C73.8955 68 73 67.1045 73 66C73 64.8955 73.8955 64 75 64C76.1045 64 77 64.8955 77 66Z" fill="white"/>
<path fill-rule="evenodd" clip-rule="evenodd" d="M91 66C91 67.1045 90.1045 68 89 68C87.8955 68 87 67.1045 87 66C87 64.8955 87.8955 64 89 64C90.1045 64 91 64.8955 91 66Z" fill="white"/>
<path fill-rule="evenodd" clip-rule="evenodd" d="M106 66C106 67.1045 105.104 68 104 68C102.896 68 102 67.1045 102 66C102 64.8955 102.896 64 104 64C105.104 64 106 64.8955 106 66Z" fill="white"/>
<path fill-rule="evenodd" clip-rule="evenodd" d="M4 79C4 80.1045 3.10449 81 2 81C0.895507 81 0 80.1045 0 79C0 77.895 0.895507 77 2 77C3.10449 77 4 77.895 4 79Z" fill="white"/>
<path fill-rule="evenodd" clip-rule="evenodd" d="M18 79C18 80.1045 17.1045 81 16 81C14.8955 81 14 80.1045 14 79C14 77.895 14.8955 77 16 77C17.1045 77 18 77.895 18 79Z" fill="white"/>
<path fill-rule="evenodd" clip-rule="evenodd" d="M33 79C33 80.1045 32.1045 81 31 81C29.8955 81 29 80.1045 29 79C29 77.895 29.8955 77 31 77C32.1045 77 33 77.895 33 79Z" fill="white"/>
<path fill-rule="evenodd" clip-rule="evenodd" d="M48 79C48 80.1045 47.1045 81 46 81C44.8955 81 44 80.1045 44 79C44 77.895 44.8955 77 46 77C47.1045 77 48 77.895 48 79Z" fill="white"/>
<path fill-rule="evenodd" clip-rule="evenodd" d="M62 79C62 80.1045 61.1045 81 60 81C58.8955 81 58 80.1045 58 79C58 77.895 58.8955 77 60 77C61.1045 77 62 77.895 62 79Z" fill="white"/>
<path fill-rule="evenodd" clip-rule="evenodd" d="M77 79C77 80.1045 76.1045 81 75 81C73.8955 81 73 80.1045 73 79C73 77.895 73.8955 77 75 77C76.1045 77 77 77.895 77 79Z" fill="white"/>
<path fill-rule="evenodd" clip-rule="evenodd" d="M91 79C91 80.1045 90.1045 81 89 81C87.8955 81 87 80.1045 87 79C87 77.895 87.8955 77 89 77C90.1045 77 91 77.895 91 79Z" fill="white"/>
<path fill-rule="evenodd" clip-rule="evenodd" d="M106 79C106 80.1045 105.104 81 104 81C102.896 81 102 80.1045 102 79C102 77.895 102.896 77 104 77C105.104 77 106 77.895 106 79Z" fill="white"/>
<path fill-rule="evenodd" clip-rule="evenodd" d="M4 91C4 92.1045 3.10449 93 2 93C0.895507 93 0 92.1045 0 91C0 89.8955 0.895507 89 2 89C3.10449 89 4 89.8955 4 91Z" fill="white"/>
<path fill-rule="evenodd" clip-rule="evenodd" d="M18 91C18 92.1045 17.1045 93 16 93C14.8955 93 14 92.1045 14 91C14 89.8955 14.8955 89 16 89C17.1045 89 18 89.8955 18 91Z" fill="white"/>
<path fill-rule="evenodd" clip-rule="evenodd" d="M33 91C33 92.1045 32.1045 93 31 93C29.8955 93 29 92.1045 29 91C29 89.8955 29.8955 89 31 89C32.1045 89 33 89.8955 33 91Z" fill="white"/>
<path fill-rule="evenodd" clip-rule="evenodd" d="M48 91C48 92.1045 47.1045 93 46 93C44.8955 93 44 92.1045 44 91C44 89.8955 44.8955 89 46 89C47.1045 89 48 89.8955 48 91Z" fill="white"/>
<path fill-rule="evenodd" clip-rule="evenodd" d="M62 91C62 92.1045 61.1045 93 60 93C58.8955 93 58 92.1045 58 91C58 89.8955 58.8955 89 60 89C61.1045 89 62 89.8955 62 91Z" fill="white"/>
<path fill-rule="evenodd" clip-rule="evenodd" d="M77 91C77 92.1045 76.1045 93 75 93C73.8955 93 73 92.1045 73 91C73 89.8955 73.8955 89 75 89C76.1045 89 77 89.8955 77 91Z" fill="white"/>
<path fill-rule="evenodd" clip-rule="evenodd" d="M91 91C91 92.1045 90.1045 93 89 93C87.8955 93 87 92.1045 87 91C87 89.8955 87.8955 89 89 89C90.1045 89 91 89.8955 91 91Z" fill="white"/>
<path fill-rule="evenodd" clip-rule="evenodd" d="M106 91C106 92.1045 105.104 93 104 93C102.896 93 102 92.1045 102 91C102 89.8955 102.896 89 104 89C105.104 89 106 89.8955 106 91Z" fill="white"/>
<mask id="mask0" mask-type="alpha" maskUnits="userSpaceOnUse" x="0" y="102" width="4" height="4">
<path fill-rule="evenodd" clip-rule="evenodd" d="M9.91821e-05 102.239H3.7611V106H9.91821e-05V102.239Z" fill="white"/>
</mask>
<g mask="url(#mask0)">
<path fill-rule="evenodd" clip-rule="evenodd" d="M3.7611 104.12C3.7611 105.158 2.9191 106 1.8806 106C0.842099 106 9.91821e-05 105.158 9.91821e-05 104.12C9.91821e-05 103.081 0.842099 102.239 1.8806 102.239C2.9191 102.239 3.7611 103.081 3.7611 104.12Z" fill="white"/>
</g>
<mask id="mask1" mask-type="alpha" maskUnits="userSpaceOnUse" x="15" y="102" width="4" height="4">
<path fill-rule="evenodd" clip-rule="evenodd" d="M15.2451 102.239H18.5882V106H15.2451V102.239Z" fill="white"/>
</mask>
<g mask="url(#mask1)">
<path fill-rule="evenodd" clip-rule="evenodd" d="M18.5882 104.12C18.5882 105.158 17.8397 106 16.9166 106C15.9935 106 15.2451 105.158 15.2451 104.12C15.2451 103.081 15.9935 102.239 16.9166 102.239C17.8397 102.239 18.5882 103.081 18.5882 104.12Z" fill="white"/>
</g>
<mask id="mask2" mask-type="alpha" maskUnits="userSpaceOnUse" x="29" y="102" width="4" height="4">
<path fill-rule="evenodd" clip-rule="evenodd" d="M29.0516 102.239H32.8126V106H29.0516V102.239Z" fill="white"/>
</mask>
<g mask="url(#mask2)">
<path fill-rule="evenodd" clip-rule="evenodd" d="M32.8126 104.12C32.8126 105.158 31.9706 106 30.9321 106C29.8936 106 29.0516 105.158 29.0516 104.12C29.0516 103.081 29.8936 102.239 30.9321 102.239C31.9706 102.239 32.8126 103.081 32.8126 104.12Z" fill="white"/>
</g>
<mask id="mask3" mask-type="alpha" maskUnits="userSpaceOnUse" x="44" y="102" width="4" height="4">
<path fill-rule="evenodd" clip-rule="evenodd" d="M44.2909 102.239H47.634V106H44.2909V102.239Z" fill="white"/>
</mask>
<g mask="url(#mask3)">
<path fill-rule="evenodd" clip-rule="evenodd" d="M47.634 104.12C47.634 105.158 46.8856 106 45.9624 106C45.0393 106 44.2909 105.158 44.2909 104.12C44.2909 103.081 45.0393 102.239 45.9624 102.239C46.8856 102.239 47.634 103.081 47.634 104.12Z" fill="white"/>
</g>
<mask id="mask4" mask-type="alpha" maskUnits="userSpaceOnUse" x="58" y="102" width="4" height="4">
<path fill-rule="evenodd" clip-rule="evenodd" d="M58.1029 102.239H61.8639V106H58.1029V102.239Z" fill="white"/>
</mask>
<g mask="url(#mask4)">
<path fill-rule="evenodd" clip-rule="evenodd" d="M61.8639 104.12C61.8639 105.158 61.0219 106 59.9834 106C58.9449 106 58.1029 105.158 58.1029 104.12C58.1029 103.081 58.9449 102.239 59.9834 102.239C61.0219 102.239 61.8639 103.081 61.8639 104.12Z" fill="white"/>
</g>
<mask id="mask5" mask-type="alpha" maskUnits="userSpaceOnUse" x="73" y="102" width="4" height="4">
<path fill-rule="evenodd" clip-rule="evenodd" d="M73.3364 102.239H76.6796V106H73.3364V102.239Z" fill="white"/>
</mask>
<g mask="url(#mask5)">
<path fill-rule="evenodd" clip-rule="evenodd" d="M76.6796 104.12C76.6796 105.158 75.9311 106 75.008 106C74.0849 106 73.3364 105.158 73.3364 104.12C73.3364 103.081 74.0849 102.239 75.008 102.239C75.9311 102.239 76.6796 103.081 76.6796 104.12Z" fill="white"/>
</g>
<mask id="mask6" mask-type="alpha" maskUnits="userSpaceOnUse" x="87" y="102" width="4" height="4">
<path fill-rule="evenodd" clip-rule="evenodd" d="M87.1544 102.239H90.9154V106H87.1544V102.239Z" fill="white"/>
</mask>
<g mask="url(#mask6)">
<path fill-rule="evenodd" clip-rule="evenodd" d="M90.9154 104.12C90.9154 105.158 90.0734 106 89.0349 106C87.9964 106 87.1544 105.158 87.1544 104.12C87.1544 103.081 87.9964 102.239 89.0349 102.239C90.0734 102.239 90.9154 103.081 90.9154 104.12Z" fill="white"/>
</g>
<mask id="mask7" mask-type="alpha" maskUnits="userSpaceOnUse" x="102" y="102" width="4" height="4">
<path fill-rule="evenodd" clip-rule="evenodd" d="M102.382 102.239H105.725V106H102.382V102.239Z" fill="white"/>
</mask>
<g mask="url(#mask7)">
<path fill-rule="evenodd" clip-rule="evenodd" d="M105.725 104.12C105.725 105.158 104.977 106 104.054 106C103.131 106 102.382 105.158 102.382 104.12C102.382 103.081 103.131 102.239 104.054 102.239C104.977 102.239 105.725 103.081 105.725 104.12Z" fill="white"/>
</g>
</svg>
