<svg width="14" height="25" viewBox="0 0 14 25" fill="none" xmlns="http://www.w3.org/2000/svg">
<mask id="mask0" mask-type="alpha" maskUnits="userSpaceOnUse" x="0" y="0" width="14" height="25">
<path fill-rule="evenodd" clip-rule="evenodd" d="M0 0H14V25H0V0Z" fill="white"/>
</mask>
<g mask="url(#mask0)">
<path fill-rule="evenodd" clip-rule="evenodd" d="M13.4727 0.00510546L10.1153 0C6.34234 0 3.90438 2.41488 3.90438 6.15208V8.98853H0.527333C0.235713 8.98853 0 9.21755 0 9.49908V13.609C0 13.8905 0.235713 14.1188 0.527333 14.1188H3.90438V24.4895C3.90438 24.7717 4.14009 25 4.43171 25H8.83698C9.12935 25 9.36506 24.771 9.36506 24.4895V14.1188H13.3133C13.6049 14.1188 13.8413 13.8905 13.8413 13.609L13.8429 9.49908C13.8429 9.36415 13.787 9.23433 13.688 9.13805C13.589 9.04324 13.4553 8.98853 13.3148 8.98853H9.36506V6.58459C9.36506 5.42857 9.65064 4.84144 11.2107 4.84144L13.4727 4.84071C13.7643 4.84071 14 4.61242 14 4.33089V0.514923C14 0.233393 13.7643 0.00510546 13.4727 0.00510546Z" fill="white"/>
</g>
</svg>
