<svg width="24" height="24" viewBox="0 0 24 24" fill="none" xmlns="http://www.w3.org/2000/svg">
<mask id="mask0" mask-type="alpha" maskUnits="userSpaceOnUse" x="0" y="0" width="24" height="24">
<path fill-rule="evenodd" clip-rule="evenodd" d="M0 0.519989H23.48V23.9998H0V0.519989Z" fill="white"/>
</mask>
<g mask="url(#mask0)">
<path fill-rule="evenodd" clip-rule="evenodd" d="M21.3971 17.5205C21.3971 19.9445 19.4244 21.9165 17.0004 21.9165H6.47976C4.05509 21.9171 2.08309 19.9445 2.08309 17.5205V6.99981C2.08309 4.57581 4.05509 2.60314 6.47976 2.60314H17.0004C19.4244 2.60314 21.3971 4.57581 21.3971 6.99981V17.5205ZM17.0004 0.519806H6.47976C2.90709 0.519806 -0.000244141 3.42647 -0.000244141 6.99981V17.5205C-0.000244141 21.0931 2.90709 23.9998 6.47976 23.9998H17.0004C20.5738 23.9998 23.4804 21.0931 23.4804 17.5205V6.99981C23.4804 3.42647 20.5738 0.519806 17.0004 0.519806Z" fill="white"/>
</g>
<path fill-rule="evenodd" clip-rule="evenodd" d="M12 16.9339C9.83074 16.9339 8.06612 15.1693 8.06612 13C8.06612 10.8307 9.83074 9.06545 12 9.06545C14.1693 9.06545 15.9339 10.8307 15.9339 13C15.9339 15.1693 14.1686 16.9339 12 16.9339ZM12 7C8.69091 7 6 9.69157 6 13C6 16.3084 8.69091 19 12 19C15.3084 19 18 16.3084 18 13C18 9.69157 15.3084 7 12 7Z" fill="white"/>
<path fill-rule="evenodd" clip-rule="evenodd" d="M18.5003 5C18.1056 5 17.7194 5.15972 17.4405 5.43923C17.161 5.71743 17 6.1043 17 6.50033C17 6.89439 17.161 7.28126 17.4405 7.56142C17.7187 7.83897 18.1056 8 18.5003 8C18.8957 8 19.2813 7.83897 19.5608 7.56142C19.8409 7.28126 20 6.89439 20 6.50033C20 6.1043 19.8409 5.71743 19.5608 5.43923C19.2826 5.15972 18.8957 5 18.5003 5Z" fill="white"/>
</svg>
