<svg width="100" height="99" viewBox="0 0 100 99" fill="none" xmlns="http://www.w3.org/2000/svg">
    <g opacity="0.5">
    <mask id="mask0" mask-type="alpha" maskUnits="userSpaceOnUse" x="0" y="0" width="50" height="99">
    <path fill-rule="evenodd" clip-rule="evenodd" d="M0 0.60259H49.7089V98.6729H0V0.60259Z" fill="white"/>
    </mask>
    <g mask="url(#mask0)">
    <path fill-rule="evenodd" clip-rule="evenodd" d="M31.9263 68.767C27.2552 63.8291 24.9214 57.4508 24.9214 49.6375C24.9214 41.8243 27.2552 35.4484 31.9263 30.5086C36.6853 25.4803 42.613 22.9652 49.7088 22.9652V0.60259C35.4287 0.60259 23.5745 5.36404 14.1443 14.8821C4.71421 24.402 -0.000244141 35.9875 -0.000244141 49.6375C-0.000244141 63.2893 4.71421 74.8749 14.1443 84.3936C23.5745 93.9134 35.4287 98.6731 49.7088 98.6731V76.3104C42.613 76.3104 36.6853 73.7978 31.9263 68.767Z" fill="white"/>
    </g>
    </g>
    <mask id="mask1" mask-type="alpha" maskUnits="userSpaceOnUse" x="49" y="0" width="51" height="99">
    <path fill-rule="evenodd" clip-rule="evenodd" d="M49.7085 0.60253H99.417V98.6729H49.7085V0.60253Z" fill="white"/>
    </mask>
    <g mask="url(#mask1)">
    <path fill-rule="evenodd" clip-rule="evenodd" d="M99.4175 49.6375C99.4175 35.9881 94.7031 24.4025 85.273 14.882C75.8428 5.36398 63.988 0.60253 49.7085 0.60253V22.9652C56.7133 22.9652 62.5946 25.4802 67.3561 30.5086C72.1151 35.5393 74.4958 41.9146 74.4958 49.6375C74.4958 57.3628 72.1151 63.7381 67.3561 68.767C62.5946 73.7977 56.7133 76.3104 49.7085 76.3104V98.673C63.988 98.673 75.8428 93.9134 85.273 84.3935C94.7031 74.8754 99.4175 63.2893 99.4175 49.6375Z" fill="#F91155"/>
    </g>
</svg>
