<svg width="100" height="76" viewBox="0 0 100 76" fill="none" xmlns="http://www.w3.org/2000/svg">
<path fill-rule="evenodd" clip-rule="evenodd" d="M83.3314 50V43.9394C83.3314 43.1038 84.0102 42.4242 84.8465 42.4242H86.3617C87.198 42.4242 87.8768 41.7455 87.8768 40.9091C87.8768 40.0727 87.198 39.3939 86.3617 39.3939H84.8465C82.3397 39.3939 80.3011 41.4326 80.3011 43.9394V50C80.3011 52.5068 82.3397 54.5455 84.8465 54.5455H90.9071V68.1818C90.9071 70.6886 88.8685 72.7273 86.3617 72.7273H7.57606C6.36091 72.7273 5.22 72.2538 4.36167 71.3955C3.50258 70.5364 3.02985 69.3947 3.03061 68.1803L3.04349 19.697C3.04349 17.1902 5.08212 15.1515 7.58894 15.1515H27.2708V13.6364C27.2708 7.78788 32.0283 3.0303 37.8768 3.0303C43.7253 3.0303 48.4829 7.78788 48.4829 13.6364C48.4829 14.4727 49.1617 15.1515 49.998 15.1515C50.8344 15.1515 51.5132 14.4727 51.5132 13.6364C51.5132 6.11742 45.3958 0 37.8768 0C30.87 0 25.0799 5.31288 24.3238 12.1212H7.58894C3.41167 12.1212 0.0131845 15.5197 0.0131845 19.697L0.000305722 68.1795C-0.000451854 70.203 0.787427 72.1061 2.21849 73.5379C3.64879 74.9689 5.55182 75.7576 7.57606 75.7576H86.3617C90.5389 75.7576 93.9374 72.3591 93.9374 68.1818V51.5152H84.8465C84.0102 51.5152 83.3314 50.8356 83.3314 50Z" fill="white"/>
<mask id="mask0" mask-type="alpha" maskUnits="userSpaceOnUse" x="6" y="18" width="94" height="37">
<path fill-rule="evenodd" clip-rule="evenodd" d="M6.05853 18.1818H99.9977V54.5417H6.05853V18.1818Z" fill="white"/>
</mask>
<g mask="url(#mask0)">
<path fill-rule="evenodd" clip-rule="evenodd" d="M93.9373 39.3939V25.7576C93.9373 21.5803 90.5388 18.1818 86.3616 18.1818H7.57368C6.73732 18.1818 6.05853 18.8606 6.05853 19.697C6.05853 20.5333 6.73732 21.2121 7.57368 21.2121H86.3616C88.8684 21.2121 90.907 23.2508 90.907 25.7576V42.4242H96.9676V53.0265C96.9676 53.8629 97.6464 54.5417 98.4828 54.5417C99.3191 54.5417 99.9979 53.8629 99.9979 53.0265V39.3939H93.9373Z" fill="white"/>
</g>
<path fill-rule="evenodd" clip-rule="evenodd" d="M86.3653 46.9697C86.3653 47.8061 87.0471 48.4848 87.8842 48.4848C88.7206 48.4848 89.3994 47.8061 89.3994 46.9697C89.3994 46.1333 88.7206 45.4545 87.8842 45.4545H87.8767C87.0403 45.4545 86.3653 46.1333 86.3653 46.9697Z" fill="white"/>
<path fill-rule="evenodd" clip-rule="evenodd" d="M39.3919 33.3333H46.9684C51.1457 33.3333 54.5434 36.7318 54.5441 40.9091C54.5441 45.0864 51.1457 48.4848 46.9684 48.4848H39.3919V33.3333ZM31.8161 56.0606C30.9798 56.0606 30.301 56.7394 30.301 57.5758C30.301 58.4121 30.9798 59.0909 31.8161 59.0909H36.3616V68.1818C36.3616 69.0182 37.0404 69.697 37.8767 69.697C38.7131 69.697 39.3919 69.0182 39.3919 68.1818V59.0909H49.9979C50.8343 59.0909 51.5131 58.4121 51.5131 57.5758C51.5131 56.7394 50.8343 56.0606 49.9979 56.0606H39.3919V51.5152H46.9684C52.8169 51.5152 57.5745 46.7568 57.5745 40.9083C57.5737 35.0606 52.8161 30.303 46.9684 30.303H36.3616V48.4848H31.8161C30.9798 48.4848 30.301 49.1636 30.301 50C30.301 50.8364 30.9798 51.5152 31.8161 51.5152H36.3616V56.0606H31.8161Z" fill="white"/>
<path fill-rule="evenodd" clip-rule="evenodd" d="M49.9979 3.0303C55.8464 3.0303 60.604 7.78788 60.604 13.6364V15.1515H86.3616C87.1979 15.1515 87.8767 14.4727 87.8767 13.6364C87.8767 12.8 87.1979 12.1212 86.3616 12.1212H63.551C62.7949 5.31288 57.0048 0 49.9979 0C49.1616 0 48.4828 0.678788 48.4828 1.51515C48.4828 2.35152 49.1616 3.0303 49.9979 3.0303Z" fill="white"/>
</svg>
