<svg width="20" height="52" viewBox="0 0 20 52" fill="none" xmlns="http://www.w3.org/2000/svg">
<mask id="mask0" mask-type="alpha" maskUnits="userSpaceOnUse" x="0" y="0" width="20" height="51">
<path fill-rule="evenodd" clip-rule="evenodd" d="M0 0.000183105H19.6958V50.7276H0V0.000183105Z" fill="white"/>
</mask>
<g mask="url(#mask0)">
<path fill-rule="evenodd" clip-rule="evenodd" d="M8.33316 6.06034C8.33316 5.22245 9.0121 4.54508 9.84789 4.54508C10.6842 4.54508 11.3632 5.22245 11.3632 6.06034C11.3632 6.89666 10.6842 7.57561 9.84789 7.57561C9.0121 7.57561 8.33316 6.89666 8.33316 6.06034ZM8.33316 1.51508C8.33316 0.678764 9.0121 -0.000183105 9.84789 -0.000183105C10.6842 -0.000183105 11.3632 0.678764 11.3632 1.51508C11.3632 2.35297 10.6842 3.03034 9.84789 3.03034C9.0121 3.03034 8.33316 2.35297 8.33316 1.51508ZM7.07842 41.1677C7.46474 41.3109 7.66684 41.7419 7.53421 42.1277C7.39895 42.5177 6.96526 42.7303 6.57105 42.5961C5.71105 42.2924 3.70158 41.4524 2.08263 39.383C0.115263 36.8656 0.00157895 34.164 0 33.3046V18.9114C0.00157895 18.1635 0.091579 14.9393 2.61421 12.2146C5.46053 9.14192 9.21526 9.06561 9.84789 9.0635C10.4753 9.0635 14.2526 9.12771 17.1016 12.2146C19.6184 14.9419 19.6968 18.1672 19.6958 18.9114V33.3046C19.7 34.1525 19.6 36.6882 17.8053 39.1382C16.1289 41.4267 13.9463 42.3093 13.1263 42.5956C12.7342 42.7314 12.2995 42.5214 12.1621 42.1293C12.0258 41.7356 12.2374 41.3009 12.6295 41.164C13.3553 40.9024 15.0753 40.1714 16.4484 38.3824C18.0663 36.2756 18.1758 34.0414 18.1805 33.3046V18.9114C18.1805 18.3061 18.1163 15.5014 15.9 13.1661C13.4942 10.6314 10.3832 10.5782 9.84789 10.5782C9.33053 10.5798 6.00842 10.6482 3.58263 13.4003C1.39632 15.8793 1.48474 18.7835 1.51474 19.3751V33.3046C1.52263 34.0451 1.64 36.2109 3.19316 38.2882C4.58684 40.1535 6.36105 40.9072 7.07842 41.1677ZM10.6058 48.1519L13.1058 45.6519C13.2568 45.5009 13.4089 45.4246 13.6358 45.4246C13.8632 45.4246 14.0147 45.5009 14.1663 45.6519C14.4689 45.9561 14.4689 46.4098 14.1663 46.7135L10.3784 50.5009C10.2268 50.6525 10.0374 50.7277 9.84789 50.7277C9.65895 50.7277 9.46947 50.6525 9.31789 50.5009L5.53 46.7135C5.22737 46.4098 5.22737 45.9561 5.53 45.6519C5.68158 45.5009 5.83316 45.4246 6.06053 45.4246C6.28789 45.4246 6.43947 45.5009 6.59053 45.6519L9.09053 48.1519V37.8493C9.09053 37.3956 9.39368 37.0919 9.84789 37.0919C10.3026 37.0919 10.6058 37.3956 10.6058 37.8493V48.1519ZM9.84789 18.154C10.2663 18.154 10.6058 18.4924 10.6058 18.9114V23.4567C10.6058 23.8756 10.2663 24.214 9.84789 24.214C9.43 24.214 9.09053 23.8756 9.09053 23.4567V18.9114C9.09053 18.4924 9.43 18.154 9.84789 18.154Z" fill="white"/>
</g>
</svg>
