<svg width="14" height="25" viewBox="0 0 14 25" fill="none" xmlns="http://www.w3.org/2000/svg">
<path fill-rule="evenodd" clip-rule="evenodd" d="M5.85227 17.8536C4.04476 17.6583 2.41528 17.1968 1.01997 16.0651C0.846444 15.924 0.668402 15.7889 0.510357 15.6311C-0.10118 15.0231 -0.161818 14.3269 0.321348 13.6092C0.7342 12.9945 1.42895 12.8307 2.15015 13.1832C2.28949 13.2514 2.42302 13.337 2.5501 13.4286C5.15043 15.2813 8.72224 15.3321 11.3322 13.5116C11.5909 13.3062 11.867 13.139 12.1876 13.0534C12.8108 12.8875 13.392 13.1243 13.7261 13.6895C14.108 14.3349 14.1029 14.9649 13.6326 15.4659C12.9101 16.2344 12.0425 16.7895 11.0781 17.1774C10.1659 17.5439 9.16735 17.7285 8.17779 17.8516C8.32745 18.0195 8.39777 18.1024 8.4913 18.1994C9.83372 19.5979 11.1819 20.9904 12.5205 22.3936C12.9759 22.8712 13.0707 23.4644 12.8204 24.0202C12.5456 24.6275 11.9315 25.0275 11.329 24.9847C10.9471 24.9579 10.6497 24.7606 10.3853 24.4844C9.37184 23.427 8.33971 22.3896 7.34693 21.3128C7.05858 20.9998 6.91924 21.0586 6.66508 21.3308C5.64585 22.419 4.6092 23.4898 3.5674 24.5553C3.09971 25.0328 2.54301 25.1191 2.00049 24.8462C1.42379 24.5559 1.05674 23.946 1.08512 23.332C1.10512 22.9173 1.30123 22.6003 1.57603 22.316C2.9049 20.9409 4.22925 19.5618 5.55489 18.184C5.64262 18.0924 5.72455 17.9947 5.85227 17.8536Z" fill="white"/>
<mask id="mask0" mask-type="alpha" maskUnits="userSpaceOnUse" x="1" y="0" width="12" height="13">
<path fill-rule="evenodd" clip-rule="evenodd" d="M1.44897 0.557053H12.9881V12.4482H1.44897V0.557053Z" fill="white"/>
</mask>
<g mask="url(#mask0)">
<path fill-rule="evenodd" clip-rule="evenodd" d="M10.0456 6.4974C10.0399 4.8815 8.78939 3.59515 7.22244 3.59385C5.64223 3.5919 4.38097 4.90165 4.3936 6.5325C4.40497 8.1419 5.6656 9.41915 7.2376 9.4133C8.80329 9.40745 10.0507 8.11265 10.0456 6.4974ZM7.17634 12.4482C4.01907 12.4371 1.43023 9.7435 1.44918 6.4896C1.4675 3.1993 4.0576 0.547953 7.24518 0.557053C10.4397 0.566153 13.0045 3.2552 12.9881 6.5793C12.9717 9.82735 10.3652 12.4592 7.17634 12.4482Z" fill="white"/>
</g>
</svg>
