<svg width="100" height="77" viewBox="0 0 100 77" fill="none" xmlns="http://www.w3.org/2000/svg">
<mask id="mask0" mask-type="alpha" maskUnits="userSpaceOnUse" x="36" y="0" width="64" height="77">
<path fill-rule="evenodd" clip-rule="evenodd" d="M36.3635 0.757576H100V76.5155H36.3635V0.757576Z" fill="white"/>
</mask>
<g mask="url(#mask0)">
<path fill-rule="evenodd" clip-rule="evenodd" d="M71.3617 13.0352C70.5314 12.9496 69.7875 13.561 69.7041 14.3928C69.6216 15.2261 70.2299 15.9678 71.0617 16.0504C85.8322 17.5178 96.9701 29.8322 96.9701 44.6966C96.9701 52.6481 93.6329 60.3216 87.817 65.7496C81.9201 71.2526 74.217 73.9746 66.1269 73.4133C51.7208 72.414 40.2488 60.7822 39.4405 46.3557C38.5746 30.8883 49.9337 17.5769 65.3011 16.0504L66.667 15.9148V8.33295H57.5761C57.5761 5.82613 59.6148 3.7875 62.1216 3.7875H74.2428C76.7488 3.7875 78.7882 5.82613 78.7882 8.33295H71.2125C70.3754 8.33295 69.6973 9.01098 69.6973 9.8481C69.6973 10.6845 70.3754 11.3633 71.2125 11.3633H81.8185V8.33295C81.8185 4.15568 78.4193 0.757195 74.2428 0.757195H62.1216C57.9435 0.757195 54.5458 4.15568 54.5458 8.33295V11.3633H63.6367V13.2004C47.3466 15.5178 35.4837 29.8936 36.4148 46.5254C37.3079 62.4731 49.9913 75.3322 65.917 76.436C66.686 76.489 67.4496 76.5155 68.211 76.5155C76.3019 76.5155 83.9261 73.5239 89.8837 67.9648C96.3132 61.9663 100 53.4852 100 44.6966C100 28.2678 87.6882 14.6564 71.3617 13.0352Z" fill="white"/>
</g>
<path fill-rule="evenodd" clip-rule="evenodd" d="M84.8486 44.6965C84.8486 43.8602 84.1698 43.1814 83.3334 43.1814H69.6971V20.4541C69.6971 19.6177 69.0183 18.9389 68.1819 18.9389C67.3455 18.9389 66.6667 19.6177 66.6667 20.4541V46.2117H83.3334C84.1698 46.2117 84.8486 45.5329 84.8486 44.6965Z" fill="white"/>
<path fill-rule="evenodd" clip-rule="evenodd" d="M46.9698 43.1814H43.9395C43.1031 43.1814 42.4243 43.8602 42.4243 44.6965C42.4243 45.5329 43.1031 46.2117 43.9395 46.2117H46.9698C47.8061 46.2117 48.4849 45.5329 48.4849 44.6965C48.4849 43.8602 47.8061 43.1814 46.9698 43.1814Z" fill="white"/>
<path fill-rule="evenodd" clip-rule="evenodd" d="M66.6667 65.9086V68.9389C66.6667 69.7753 67.3455 70.4541 68.1819 70.4541C69.0183 70.4541 69.6971 69.7753 69.6971 68.9389V65.9086C69.6971 65.0723 69.0183 64.3935 68.1819 64.3935C67.3455 64.3935 66.6667 65.0723 66.6667 65.9086Z" fill="white"/>
<path fill-rule="evenodd" clip-rule="evenodd" d="M92.4244 46.2117C93.2607 46.2117 93.9395 45.5329 93.9395 44.6965C93.9395 43.8602 93.2607 43.1814 92.4244 43.1814H89.3941C88.5577 43.1814 87.8789 43.8602 87.8789 44.6965C87.8789 45.5329 88.5577 46.2117 89.3941 46.2117H92.4244Z" fill="white"/>
<path fill-rule="evenodd" clip-rule="evenodd" d="M33.3335 44.6965C33.3335 43.8602 32.6547 43.1814 31.8183 43.1814H1.51527C0.67891 43.1814 0.00012207 43.8602 0.00012207 44.6965C0.00012207 45.5329 0.67891 46.2117 1.51527 46.2117H31.8183C32.6547 46.2117 33.3335 45.5329 33.3335 44.6965Z" fill="white"/>
<path fill-rule="evenodd" clip-rule="evenodd" d="M10.6062 34.0905H33.3335C34.1698 34.0905 34.8486 33.4117 34.8486 32.5753C34.8486 31.7389 34.1698 31.0602 33.3335 31.0602H10.6062C9.76985 31.0602 9.09106 31.7389 9.09106 32.5753C9.09106 33.4117 9.76985 34.0905 10.6062 34.0905Z" fill="white"/>
<path fill-rule="evenodd" clip-rule="evenodd" d="M25.7577 21.9692H40.9092C41.7456 21.9692 42.4244 21.2905 42.4244 20.4541C42.4244 19.6177 41.7456 18.9389 40.9092 18.9389H25.7577C24.9213 18.9389 24.2426 19.6177 24.2426 20.4541C24.2426 21.2905 24.9213 21.9692 25.7577 21.9692Z" fill="white"/>
<path fill-rule="evenodd" clip-rule="evenodd" d="M34.8486 56.8177C34.8486 55.9814 34.1698 55.3026 33.3335 55.3026H10.6062C9.76985 55.3026 9.09106 55.9814 9.09106 56.8177C9.09106 57.6541 9.76985 58.3329 10.6062 58.3329H33.3335C34.1698 58.3329 34.8486 57.6541 34.8486 56.8177Z" fill="white"/>
<path fill-rule="evenodd" clip-rule="evenodd" d="M42.4244 67.4238H25.7577C24.9213 67.4238 24.2426 68.1026 24.2426 68.9389C24.2426 69.7753 24.9213 70.4541 25.7577 70.4541H42.4244C43.2607 70.4541 43.9395 69.7753 43.9395 68.9389C43.9395 68.1026 43.2607 67.4238 42.4244 67.4238Z" fill="white"/>
</svg>
