<svg width="24" height="14" viewBox="0 0 24 14" fill="none" xmlns="http://www.w3.org/2000/svg">
<mask id="mask0" mask-type="alpha" maskUnits="userSpaceOnUse" x="0" y="0" width="24" height="14">
<path fill-rule="evenodd" clip-rule="evenodd" d="M0 0H24V14H0V0Z" fill="white"/>
</mask>
<g mask="url(#mask0)">
<path fill-rule="evenodd" clip-rule="evenodd" d="M20.6553 8.90171C21.4516 9.70291 22.2913 10.4572 23.0062 11.3386C23.3218 11.7305 23.6198 12.1353 23.8488 12.5899C24.1725 13.2368 23.8789 13.948 23.3166 13.9866L19.82 13.985C18.9187 14.0622 18.1986 13.6885 17.5938 13.0522C17.1101 12.5438 16.6617 12.0036 16.1963 11.4778C16.0055 11.2637 15.8059 11.0609 15.5666 10.9013C15.0895 10.582 14.6755 10.6796 14.4025 11.1926C14.1251 11.7146 14.0619 12.2926 14.0341 12.8744C13.9974 13.7233 13.7485 13.9457 12.9213 13.985C11.1539 14.0713 9.4768 13.7952 7.91783 12.8759C6.54383 12.0664 5.47883 10.9225 4.55182 9.62725C2.74697 7.10563 1.36416 4.3351 0.120805 1.4874C-0.158106 0.845836 0.0459393 0.500844 0.732941 0.488739C1.87354 0.466042 3.01414 0.467555 4.1562 0.487226C4.61934 0.494035 4.92615 0.76791 5.10524 1.21958C5.72251 2.78415 6.47777 4.27155 7.42607 5.65152C7.67782 6.01845 7.93545 6.38538 8.3017 6.64413C8.70759 6.93011 9.01659 6.83554 9.20669 6.3695C9.3278 6.07444 9.38138 5.75668 9.40854 5.44044C9.49882 4.3525 9.50983 3.26683 9.35202 2.18268C9.2544 1.50631 8.88521 1.06827 8.22977 0.940407C7.89581 0.875342 7.94572 0.746727 8.1072 0.550021C8.38831 0.211081 8.65254 0 9.17954 0H13.1313C13.7537 0.126346 13.8909 0.414596 13.9761 1.05994L13.9797 5.58418C13.9731 5.83385 14.1008 6.57528 14.5376 6.74097C14.8869 6.85823 15.1167 6.56998 15.3266 6.34226C16.2727 5.30728 16.9479 4.08392 17.5513 2.81744C17.8192 2.25985 18.0489 1.68184 18.272 1.10382C18.4379 0.674853 18.697 0.463772 19.1653 0.473608L22.968 0.476634C23.0818 0.476634 23.1955 0.478904 23.3042 0.497818C23.9449 0.610546 24.1211 0.894256 23.9229 1.5396C23.611 2.55113 23.004 3.39469 22.4117 4.24204C21.7768 5.14689 21.0986 6.01996 20.4696 6.93086C19.8919 7.76157 19.9374 8.17995 20.6553 8.90171Z" fill="white"/>
</g>
</svg>
